arm26_states
nRows=14
nColumns=17

# SIMM Motion File Header:
name arm26_states
datacolumns 17
datarows 14
otherdata 1
range 0.66387966999999659000 0.70647806999999629000
endheader
time	r_shoulder_elev	r_elbow_flex	r_shoulder_elev_u	r_elbow_flex_u	TRIlong.activation	TRIlong.fiber_length	TRIlat.activation	TRIlat.fiber_length	TRImed.activation	TRImed.fiber_length	BIClong.activation	BIClong.fiber_length	BICshort.activation	BICshort.fiber_length	BRA.activation	BRA.fiber_length
      0.66387966999999659000	    -13.25646766976431000000	     82.79298241477344800000	    -20.64527719113514300000	     34.09721072625510600000	      0.01000564833547252500	      0.15917678299638729000	      0.08567816806734258900	      0.10108685595672254000	      0.08255185173989995600	      0.09613040464527822200	      0.19498645744791035000	      0.10796450159554885000	      0.01152461549720943700	      0.10698789808589849000	      0.01009125808850204300	      0.07147050192486430200
      0.66912254999999654000	    -13.36491094354363400000	     82.96886335554467000000	    -20.71783879747327000000	     32.99228877675678700000	      0.01000559256320010500	      0.15917407447149459000	      0.08720405753876833700	      0.10113923274147714000	      0.08404885201973791300	      0.09618308695360681900	      0.19536564712594662000	      0.10784766161722982000	      0.01148204267632645100	      0.10687603180806457000	      0.01008902398685784600	      0.07140363599920113200
      0.67436542999999649000	    -13.47364822613921500000	     83.13893324663773400000	    -20.75199632009006500000	     31.89865597881786700000	      0.01000553343438195400	      0.15912158530691600000	      0.08873573864215916800	      0.10118992207571847000	      0.08555645641247193500	      0.09623404259678994300	      0.19571428656305037000	      0.10773584730798735000	      0.01143780117745416900	      0.10676934827819212000	      0.01008599221757144900	      0.07133884820149318000
      0.67698686999999647000	    -13.52807939943242300000	     83.22175765665288300000	    -20.77409496422938800000	     31.29239207194332600000	      0.01000550319087473700	      0.15920185390259670000	      0.08950540037927085000	      0.10121458738259601000	      0.08631504998807168500	      0.09625882821024583900	      0.19588006509169714000	      0.10768182421310846000	      0.01141531558453987400	      0.10671789819137782000	      0.01008427660266762900	      0.07130726512995450000
      0.67960830999999644000	    -13.58251996477073900000	     83.30311854656150700000	    -20.75142325332126300000	     30.80704185110870000000	      0.01000547280815236800	      0.15899388717284357000	      0.09027895495031375300	      0.10123878959138517000	      0.08707703246560601100	      0.09628314647391440800	      0.19604219040785170000	      0.10762904454630309000	      0.01139093130921341700	      0.10666769968635641000	      0.01008252983372996700	      0.07127620013282472100
      0.68091902999999643000	    -13.60973320669031700000	     83.34326095124409100000	    -20.72593035092798500000	     30.60102346546756600000	      0.01000545757101123700	      0.15888814481703081000	      0.09066692969115730500	      0.10125071334207247000	      0.08745905748436476300	      0.09629512735377847300	      0.19612215864269039000	      0.10760311973549463000	      0.01137804293632881400	      0.10664307791760548000	      0.01008164659027615700	      0.07126087412365188200
      0.68157438999999642000	    -13.62332566125469000000	     83.36323517715878500000	    -20.74673063823583500000	     30.38265750107634100000	      0.01000544994142669700	      0.15907527777665453000	      0.09086117331242815600	      0.10125663303112870000	      0.08765029121866693700	      0.09630107566724377400	      0.19616190855742791000	      0.10759026989915076000	      0.01137143124602069600	      0.10663088048595475000	      0.01008120259662375100	      0.07125325517481855000
      0.68288510999999641000	    -13.65052516405663300000	     83.40283907106898200000	    -20.75392829173223300000	     30.05525028408001000000	      0.01000543466082313800	      0.15915057088879653000	      0.09125012000889705400	      0.10126838605759376000	      0.08803315533899759600	      0.09631288594937004200	      0.19624098845355714000	      0.10756479649678242000	      0.01135788188199913200	      0.10660671761427193000	      0.01008030999326069800	      0.07123811446217875900
      0.68419582999999640000	    -13.67772135384669400000	     83.44205169462878800000	    -20.74388328416660300000	     29.77820148292310500000	      0.01000542193193632500	      0.15914629625327839000	      0.09163993560357765200	      0.10128002072359066000	      0.08841710775289490800	      0.09632457769864498400	      0.19631966732472197000	      0.10753962820181118000	      0.01134392531265846100	      0.10658287228082848000	      0.01007941770421332900	      0.07122311028915327700
      0.68681726999999637000	    -13.73206823313498300000	     83.51938371122444900000	    -20.71808010732752000000	     29.22123863335603400000	      0.01000547048265291300	      0.15913936190890057000	      0.09242519235627028000	      0.10130292879012895000	      0.08919435772971257000	      0.09634759478770160700	      0.19647710146852912000	      0.10749020289027827000	      0.01131502385300946000	      0.10653613445182931000	      0.01007770656668857900	      0.07119351052724540200
      0.69206014999999632000	    -13.84050371538070400000	     83.66965483449696700000	    -20.64085177349061000000	     28.10202348224021300000	      0.01000604587072262900	      0.15912552483560141000	      0.09401573958422893000	      0.10134728669380132000	      0.09078098004731187400	      0.09639213022637976900	      0.19679213722637137000	      0.10739494471788799000	      0.01125341287798840700	      0.10644642027859448000	      0.01007456971037658400	      0.07113592444204908100
      0.70254590999999633000	    -14.05569639088165200000	     83.95261214044306500000	    -20.39491891483375600000	     25.81933727959961500000	      0.01000606164752091900	      0.15914910534996993000	      0.09692231017132166300	      0.10143100254327353000	      0.09363829249913396800	      0.09647626437373546500	      0.19744856204783126000	      0.10721844557253397000	      0.01113863187506194400	      0.10628140586698560000	      0.01006880055058115100	      0.07102740561374466800
      0.70385662999999632000	    -14.08239338356015900000	     83.98630216775637800000	    -20.34281540336504400000	     25.58237545749453200000	      0.01000602140864513000	      0.15910818339538393000	      0.09725495779096424200	      0.10144101549238255000	      0.09396252473243835200	      0.09648632451518733600	      0.19753764885993835000	      0.10719765679985044000	      0.01112477986045758500	      0.10626207974892392000	      0.01006812402880320400	      0.07101432309793358200
      0.70647806999999629000	    -14.13560118089434200000	     84.05267539310163700000	    -20.25025008465576800000	     25.05789608824585800000	      0.01000594397784801400	      0.15905905728857150000	      0.09790370695008561400	      0.10146081461707952000	      0.09459530391339489300	      0.09650622929760095700	      0.19772242117008729000	      0.10715690359538034000	      0.01109657378231179000	      0.10622429157840177000	      0.01006681440706870700	      0.07098867168237153700
